<?xml version="1.0" encoding="utf-8" ?><svg xmlns="http://www.w3.org/2000/svg" xmlns:xlink="http://www.w3.org/1999/xlink" width="354" height="512" viewBox="0 0 354 512"><clipPath id="cl_4"><rect x="-0.00012207031" width="354" height="512"/></clipPath><g clip-path="url(#cl_4)"><defs><linearGradient id="gradient_0" gradientUnits="userSpaceOnUse" x1="239.39903" y1="537.82526" x2="236.12729" y2="452.18948"><stop offset="0" stop-color="#10401F"/><stop offset="1" stop-color="#429B40"/></linearGradient></defs><path fill="url(#gradient_0)" transform="matrix(3.10526 0 0 3.10303 -633.474 -1321.89)" d="M226.828 452.741C241.575 439.171 265.448 431.223 284.973 428.048C271.758 438.747 259.455 450.909 253.264 467.037C244.381 501.359 263.573 508.601 262.462 539.797C248.558 518.113 213.461 511.291 214.226 480.76C214.518 469.132 218.505 460.776 226.828 452.741Z"/><defs><linearGradient id="gradient_1" gradientUnits="userSpaceOnUse" x1="272.04764" y1="420.91516" x2="235.4994" y2="465.9057"><stop offset="0" stop-color="#4FB04B"/><stop offset="1" stop-color="#3F953D"/></linearGradient></defs><path fill="url(#gradient_1)" transform="matrix(3.10526 0 0 3.10303 -633.474 -1321.89)" d="M226.828 452.741C241.575 439.171 265.448 431.223 284.973 428.048C271.758 438.747 259.455 450.909 253.264 467.037C252.464 467.206 250.515 469.037 249.797 469.656C240.847 470.005 231.14 464.98 228.409 455.996C228.85 454.687 229.12 454.186 229.153 452.808L226.828 452.741Z"/><defs><linearGradient id="gradient_2" gradientUnits="userSpaceOnUse" x1="227.95102" y1="537.46863" x2="304.21185" y2="520.28363"><stop offset="0" stop-color="#1A5EA8"/><stop offset="1" stop-color="#2CADE4"/></linearGradient></defs><path fill="url(#gradient_2)" transform="matrix(3.10526 0 0 3.10303 -633.474 -1321.89)" d="M259.566 475.801C260.16 476.286 259.987 476.062 260.377 476.697C271.589 494.985 296.562 500.934 305.029 521.254C308.637 530.082 308.609 539.979 304.95 548.787C298.298 564.733 280.418 574.042 265.375 580.358C255.228 584.329 246.891 586.409 236.371 588.745C239.984 585.77 243.525 582.708 246.991 579.562C265.305 562.725 276.869 541.386 268.525 516.803C262.69 499.611 258.828 494.051 259.566 475.801Z"/><defs><linearGradient id="gradient_3" gradientUnits="userSpaceOnUse" x1="257.85019" y1="551.13892" x2="207.92451" y2="561.8067"><stop offset="0" stop-color="#14441C"/><stop offset="1" stop-color="#236529"/></linearGradient></defs><path fill="url(#gradient_3)" transform="matrix(3.10526 0 0 3.10303 -633.474 -1321.89)" d="M222.387 536.12C223.726 536.666 226.063 538.515 227.342 539.44C237.815 547.016 246.673 550.821 259.774 548.31C255.596 558.552 249.352 565.724 241.672 573.518C240.002 575.254 238.082 577.036 236.338 578.722C223.546 575.809 217.486 572.864 207.002 564.811C212.031 555.268 217.549 545.697 222.387 536.12Z"/><defs><linearGradient id="gradient_4" gradientUnits="userSpaceOnUse" x1="270.32162" y1="453.38599" x2="311.03821" y2="461.89136"><stop offset="0" stop-color="#2173B5"/><stop offset="1" stop-color="#2DBDF0"/></linearGradient></defs><path fill="url(#gradient_4)" transform="matrix(3.10526 0 0 3.10303 -633.474 -1321.89)" d="M283.398 439.351C284.073 438.686 284.837 438.085 285.567 437.474C287.439 436.887 289.068 437.609 290.993 438.154C300.938 441.653 307.04 444.078 314.843 451.638C310.558 460.653 303.797 470.672 299.011 479.947C291.029 472.063 285.252 468.97 274.16 466.507C268.979 466.402 266.694 466.559 261.698 467.614C266.396 456.582 274.727 447.432 283.398 439.351Z"/><path fill="#196DAC" transform="matrix(3.10526 0 0 3.10303 -633.474 -1321.89)" d="M261.698 467.614C266.396 456.582 274.727 447.432 283.398 439.351L283.826 440.012C282.471 442.174 279.879 444.152 277.894 445.884C276.972 449.253 276.602 450.328 275.295 453.411C273.882 456.745 268.659 462.912 268.515 465.198C269.644 465.882 271.863 465.505 274.16 466.507C268.979 466.402 266.694 466.559 261.698 467.614Z"/><path fill="#196DAC" transform="matrix(3.10526 0 0 3.10303 -633.474 -1321.89)" d="M283.398 439.351C284.073 438.686 284.837 438.085 285.567 437.474C287.439 436.887 289.068 437.609 290.993 438.154C288.187 440.303 287.309 441.211 283.826 440.012L283.398 439.351Z"/></g></svg>