<?xml version="1.0" encoding="utf-8" ?><svg xmlns="http://www.w3.org/2000/svg" xmlns:xlink="http://www.w3.org/1999/xlink" width="512" height="512" viewBox="0 0 512 512"><defs><linearGradient id="gradient_0" gradientUnits="userSpaceOnUse" x1="239.39903" y1="537.82526" x2="236.12729" y2="452.18948"><stop offset="0" stop-color="#10401F"/><stop offset="1" stop-color="#429B40"/></linearGradient></defs><path fill="url(#gradient_0)" transform="scale(0.5 0.5)" d="M226.828 452.741C241.575 439.171 265.448 431.223 284.973 428.048C271.758 438.747 259.455 450.909 253.264 467.037C244.381 501.359 263.573 508.601 262.462 539.797C248.558 518.113 213.461 511.291 214.226 480.76C214.518 469.132 218.505 460.776 226.828 452.741Z"/><defs><linearGradient id="gradient_1" gradientUnits="userSpaceOnUse" x1="272.04764" y1="420.91516" x2="235.4994" y2="465.9057"><stop offset="0" stop-color="#4FB04B"/><stop offset="1" stop-color="#3F953D"/></linearGradient></defs><path fill="url(#gradient_1)" transform="scale(0.5 0.5)" d="M226.828 452.741C241.575 439.171 265.448 431.223 284.973 428.048C271.758 438.747 259.455 450.909 253.264 467.037C252.464 467.206 250.515 469.037 249.797 469.656C240.847 470.005 231.14 464.98 228.409 455.996C228.85 454.687 229.12 454.186 229.153 452.808L226.828 452.741Z"/><defs><linearGradient id="gradient_2" gradientUnits="userSpaceOnUse" x1="227.95102" y1="537.46863" x2="304.21185" y2="520.28363"><stop offset="0" stop-color="#1A5EA8"/><stop offset="1" stop-color="#2CADE4"/></linearGradient></defs><path fill="url(#gradient_2)" transform="scale(0.5 0.5)" d="M259.566 475.801C260.16 476.286 259.987 476.062 260.377 476.697C271.589 494.985 296.562 500.934 305.029 521.254C308.637 530.082 308.609 539.979 304.95 548.787C298.298 564.733 280.418 574.042 265.375 580.358C255.228 584.329 246.891 586.409 236.371 588.745C239.984 585.77 243.525 582.708 246.991 579.562C265.305 562.725 276.869 541.386 268.525 516.803C262.69 499.611 258.828 494.051 259.566 475.801Z"/><path fill="#33A5DA" transform="scale(0.5 0.5)" d="M789.346 491.592C797.542 490.923 804.317 491.639 809.921 498.681C822.399 514.364 813.964 543.669 790.75 540.653C785.768 540.005 782.676 537.062 779.822 533.085L779.972 542.875L780.006 558.102C775.667 558.029 771.328 557.995 766.989 557.999C767.451 550.633 767.031 543.909 767.023 536.555L766.941 492.06C770.865 491.996 774.858 491.847 778.788 491.74C779.18 494.433 779.314 495.975 779.394 498.696C782.789 494.619 784.606 493.434 789.346 491.592ZM783.582 504.367C778.405 511.828 778.626 519.498 783.238 527.222C786.878 529.447 788.481 530.042 792.791 529.883C806.865 525.667 805.884 503.045 790.216 502.075C787.015 502.724 786.497 502.967 783.582 504.367Z"/><path fill="#23692F" transform="scale(0.5 0.5)" d="M419.611 491.629C428.475 491.102 434.966 491.738 440.638 499.639C451.991 515.455 443.302 544.156 420.435 540.511C415.205 539.678 412.466 536.731 409.643 532.661C409.748 536.399 409.827 540.137 409.878 543.875L409.959 557.799C405.731 557.76 401.406 557.614 397.17 557.519C397.981 551.025 397.276 538.36 397.344 531.576C397.475 518.501 397.427 505.243 397.074 492.175L409.271 491.99L409.64 498.972C412.902 494.478 414.407 493.424 419.611 491.629ZM422.54 530.189C426.026 529.223 429.014 528.004 430.625 524.607C435.393 514.554 432.535 503.234 420.57 502.111C404.846 504.536 405.637 529.591 422.54 530.189Z"/><path fill="#23692F" transform="scale(0.5 0.5)" d="M474.379 490.967C488.108 489.762 500.248 499.835 501.595 513.551C502.943 527.267 492.995 539.51 479.293 540.999C470.304 541.975 461.482 538.048 456.192 530.715C450.902 523.381 449.958 513.772 453.72 505.549C457.483 497.327 465.372 491.758 474.379 490.967ZM479.476 529.826C495.537 523.529 490.082 500.526 474.277 502.055C459.055 507.163 461.572 531.65 479.476 529.826Z"/><path fill="#33A5DA" transform="scale(0.5 0.5)" d="M676.509 491.751L677.635 491.75C679.258 493.617 686.683 520.415 688.302 525.189C690.302 515.88 694.383 501.168 697.278 492.025C701.473 492.015 705.668 491.968 709.862 491.884C705.531 503.584 702.284 516.11 698.273 527.937C696.968 531.785 695.675 536.019 694.736 539.969C691.229 540.394 686.163 540.129 682.232 540.329C680.873 535.543 674.155 511.317 672.417 508.814L672.003 509.319C668.37 519.296 665.476 529.95 662.759 540.198C658.618 540.18 654.478 540.088 650.341 539.922C646.679 526.625 639.504 505.145 634.874 492.01L647.593 492.108C650.763 501.304 654.548 515.185 657.009 524.622C658.574 516.807 664.28 499.638 666.859 491.912C670.217 491.971 673.153 491.886 676.509 491.751Z"/><path fill="#33A5DA" transform="scale(0.5 0.5)" d="M603.651 474.162C612.866 473.149 622.17 474.991 630.303 479.44C629.332 483.11 627.806 487.298 626.578 490.943C621.133 487.349 615.126 485.732 608.488 485.487C603.683 485.309 596.984 486.851 597.626 493.303C598.457 499.075 606.883 500.823 611.43 502.171C620.059 504.666 630.717 508.057 631.647 518.694C633.114 535.474 621.519 539.751 607.859 541.46C596.701 540.269 591.492 539.939 581.873 533.534C583.29 529.763 584.637 525.967 585.914 522.146C592.988 527.027 610.566 534.081 617.62 525.367C622.607 519.206 610.045 514.419 605.576 513.312C589.773 509.395 576.974 499.679 587.601 482.504C590.813 477.368 597.536 474.947 603.651 474.162Z"/><path fill="#23692F" transform="scale(0.5 0.5)" d="M342.488 522.143C349.952 527.086 358.608 530.779 367.835 529.101C371.314 528.468 376.112 524.977 374.331 520.823C372.62 516.833 366.157 514.814 362.167 513.523C354.388 511.006 344.484 508.569 341.229 499.981C339.776 496.073 340.17 489.381 342.043 485.637C344.549 480.549 349.114 476.778 354.583 475.277C364.725 472.385 377.218 474.555 386.497 479.491C385.175 483.179 383.924 486.891 382.745 490.627C376.323 487.009 361.847 482.48 355.684 488.145C352.92 490.684 353.4 494.911 356.241 497.454L356.479 497.6C363.046 504.847 383.533 501.215 387.084 516.594C389.928 528.908 383.884 537.205 372.033 540.005C359.905 542.871 348.389 539.626 338.1 533.385C339.785 529.948 341.17 525.79 342.488 522.143Z"/><path fill="#33A5DA" transform="scale(0.5 0.5)" d="M729.754 491.65C731.286 491.536 732.82 491.473 734.355 491.461C758.387 491.469 754.142 509.597 754.484 527.004C754.507 528.151 756.649 529.798 756.7 530.708C756.872 533.782 756.692 537.454 756.603 540.498C749.038 540.75 746.089 541.342 742.489 534.537C740.273 534.922 737.334 538.917 733.385 540.079C728.162 541.617 723.623 540.941 718.759 538.599C711.833 533.4 709.866 523.596 715.857 517.122C721.51 511.014 734.519 511.982 742.108 511.848C741.88 510.435 741.441 507.15 740.749 506.025C735.825 498.015 724.712 502.681 718.531 505.879L714.858 495.757C720.942 493.104 723.127 492.632 729.754 491.65ZM736.061 530.7C738.681 529.205 739.098 528.837 741.251 526.708C741.535 524.298 741.856 521.898 741.991 519.476C738.065 519.453 733.72 519.328 729.849 519.652C720.358 522.846 724.275 533.594 736.061 530.7Z"/><defs><linearGradient id="gradient_3" gradientUnits="userSpaceOnUse" x1="257.85019" y1="551.13892" x2="207.92451" y2="561.8067"><stop offset="0" stop-color="#14441C"/><stop offset="1" stop-color="#236529"/></linearGradient></defs><path fill="url(#gradient_3)" transform="scale(0.5 0.5)" d="M222.387 536.12C223.726 536.666 226.063 538.515 227.342 539.44C237.815 547.016 246.673 550.821 259.774 548.31C255.596 558.552 249.352 565.724 241.672 573.518C240.002 575.254 238.082 577.036 236.338 578.722C223.546 575.809 217.486 572.864 207.002 564.811C212.031 555.268 217.549 545.697 222.387 536.12Z"/><defs><linearGradient id="gradient_4" gradientUnits="userSpaceOnUse" x1="270.32162" y1="453.38599" x2="311.03821" y2="461.89136"><stop offset="0" stop-color="#2173B5"/><stop offset="1" stop-color="#2DBDF0"/></linearGradient></defs><path fill="url(#gradient_4)" transform="scale(0.5 0.5)" d="M283.398 439.351C284.073 438.686 284.837 438.085 285.567 437.474C287.439 436.887 289.068 437.609 290.993 438.154C300.938 441.653 307.04 444.078 314.843 451.638C310.558 460.653 303.797 470.672 299.011 479.947C291.029 472.063 285.252 468.97 274.16 466.507C268.979 466.402 266.694 466.559 261.698 467.614C266.396 456.582 274.727 447.432 283.398 439.351Z"/><path fill="#196DAC" transform="scale(0.5 0.5)" d="M261.698 467.614C266.396 456.582 274.727 447.432 283.398 439.351L283.826 440.012C282.471 442.174 279.879 444.152 277.894 445.884C276.972 449.253 276.602 450.328 275.295 453.411C273.882 456.745 268.659 462.912 268.515 465.198C269.644 465.882 271.863 465.505 274.16 466.507C268.979 466.402 266.694 466.559 261.698 467.614Z"/><path fill="#196DAC" transform="scale(0.5 0.5)" d="M283.398 439.351C284.073 438.686 284.837 438.085 285.567 437.474C287.439 436.887 289.068 437.609 290.993 438.154C288.187 440.303 287.309 441.211 283.826 440.012L283.398 439.351Z"/><path fill="#23692F" transform="scale(0.5 0.5)" d="M551.485 479.506C555.024 479.447 560.112 479.512 563.504 479.093L563.669 492.558C567.718 492.457 571.768 492.4 575.818 492.386C575.78 495.671 575.787 499.015 575.597 502.292C571.413 501.915 567.691 501.977 563.509 502C563.558 512.669 559.007 535.771 575.569 527.375C576.526 530.762 577.428 533.876 578.553 537.209C570.233 541.317 558.541 543.622 552.818 534.242C550.948 529.254 551.147 525.344 550.994 520.051C551.031 515.231 550.875 507.039 551.32 502.418L543.539 502.475L543.473 492.62L551.293 492.607L551.485 479.506Z"/><path fill="#23692F" transform="scale(0.5 0.5)" d="M533.816 491.574C535.514 491.481 537.763 491.534 539.509 491.52L539.501 503.164C517.794 504.629 523.409 522.767 523.456 540.095C519.789 540.008 514.561 540.333 511.073 539.827L510.624 538.881C511.476 531.935 510.721 521.845 510.706 514.622C510.69 507.034 510.844 499.612 510.988 492.025L522.997 491.9L523.12 500.721C526.64 495.215 527.553 493.672 533.816 491.574Z"/></svg>